<svg width="32" height="33" viewBox="0 0 32 33" fill="none" xmlns="http://www.w3.org/2000/svg"><path d="M24.721 2.667C22.354.773 17.755.789 15.979 1.184c-2.367 1.775 2.158-1.457 8.877 4.142 7.102 5.919 4.143 11.245 2.96 12.429-1.256 1.255 1.64-.293 3.415-2.068 1.776-1.776 0-4.735-.592-6.51-.592-1.776-2.959-4.143-5.918-6.51z" fill="#BAEDFA"></path><path d="M26.173 18.836c-1.653 0-3.503-.512-5.314-1.535a.602.602 0 0 1-.236-.866.602.602 0 0 1 .866-.236c3.188 1.771 6.297 1.81 7.95.157 1.102-1.102 1.456-2.873 1.024-4.92-.473-2.164-1.771-4.407-3.66-6.296-3.858-3.857-8.896-5.038-11.257-2.677-1.81 1.81-1.535 5.47.748 8.895.315.472.669.905 1.023 1.377a.633.633 0 0 1-.079.906.632.632 0 0 1-.905-.079 13.28 13.28 0 0 1-1.102-1.496c-2.676-3.975-2.912-8.225-.59-10.508 2.873-2.873 8.737-1.653 13.066 2.676 2.047 2.047 3.503 4.526 4.015 6.967.551 2.518.079 4.683-1.338 6.14-1.063.983-2.558 1.495-4.211 1.495z" fill="#36C5F0"></path><path d="M11.847 16.12h-.118c-.355-.078-.59-.393-.512-.748l2.125-11.689c.079-.354.394-.59.748-.511.354.078.59.393.512.747l-2.126 11.69c-.04.315-.315.511-.63.511zM16.61 20.882c-.316 0-.591-.196-.63-.511-.08-.354.157-.709.511-.748l10.98-2.204c.355-.079.71.157.749.512.078.354-.158.708-.512.747l-10.98 2.204h-.119zM11.847 25.684c-.158 0-.315-.079-.473-.197l-4.762-4.762a.667.667 0 0 1 0-.905l2.716-2.716a.667.667 0 0 1 .905 0l4.762 4.762a.667.667 0 0 1 0 .906l-2.715 2.715a.632.632 0 0 1-.433.197zM7.99 20.253l3.857 3.857 1.81-1.81L9.8 18.441l-1.81 1.81z" fill="#36C5F0"></path><path d="M3.896 32.139c-.157 0-.314-.08-.472-.197L.197 28.715A.652.652 0 0 1 0 28.242c0-.197.079-.354.197-.472l7.202-7.203a.667.667 0 0 1 .905 0l3.228 3.228a.652.652 0 0 1 .197.472.652.652 0 0 1-.197.472l-7.203 7.203a.632.632 0 0 1-.433.197zm-2.322-3.897l2.322 2.322 6.298-6.297-2.323-2.322-6.297 6.297z" fill="#36C5F0"></path><path d="M5.864 26.904a.726.726 0 0 1-.472-.197l-1.614-1.613a.652.652 0 0 1-.196-.473c0-.196.078-.354.196-.472L7.4 20.53a.652.652 0 0 1 .473-.198c.157 0 .354.08.472.197l1.613 1.614a.667.667 0 0 1 0 .905l-3.62 3.621c-.158.158-.315.236-.473.236zm-.708-2.243l.669.669L8.5 22.654l-.63-.709-2.715 2.716zM22.474 10.06A.726.726 0 0 1 22 9.861l-2.046-2.164c-.236-.276-.236-.67.04-.905.275-.237.668-.237.904.039l2.047 2.165c.236.275.236.669-.04.905-.078.118-.236.157-.432.157z" fill="#36C5F0"></path><path d="M22.473 10.06a.594.594 0 0 1-.55-.355c-.158-.315-.04-.708.235-.866l2.52-1.417c.314-.157.707-.039.865.236.157.315.04.709-.236.866l-2.52 1.417a.447.447 0 0 1-.314.118zM17.239 14.152h-.08l-2.164-.236c-.354-.039-.63-.354-.55-.708a.627.627 0 0 1 .708-.551l1.456.157V11.24c0-.354.275-.63.63-.63.354 0 .63.276.63.63v2.283a.56.56 0 0 1-.237.472.601.601 0 0 1-.393.158z" fill="#36C5F0"></path></svg>