<?xml version="1.0" encoding="UTF-8"?>
<svg width="16px" height="16px" viewBox="0 0 16 16" version="1.1" xmlns="http://www.w3.org/2000/svg" xmlns:xlink="http://www.w3.org/1999/xlink">
    <!-- Generator: Sketch 55.2 (78181) - https://sketchapp.com -->
    <title>slack-language-selector-icon</title>
    <desc>Created with Sketch.</desc>
    <g id="Page-1" stroke="none" stroke-width="1" fill="none" fill-rule="evenodd">
        <g id="slack-language-selector-icon" fill="#000000" fill-rule="nonzero">
            <g transform="translate(-0.100000, -0.100000)" id="Shape">
                <path d="M8.10144,0.15732 C6.066,0.15732 4.0311,0.93132 2.48202,2.4804 C-0.61596,5.57838 -0.61596,10.62108 2.48202,13.71924 C5.58,16.81704 10.61712,16.81704 13.7151,13.71924 C16.81326,10.62108 16.81884,5.57838 13.72086,2.4804 C12.17178,0.93132 10.1367,0.15732 8.10126,0.15732 L8.10144,0.15732 Z M7.53894,1.25982 L7.56144,1.25982 L7.56144,7.55424 L4.30452,7.55424 C4.40892,5.70204 5.04162,3.88494 6.21144,2.48598 C6.62004,1.99728 7.0677,1.58904 7.53894,1.25982 Z M8.64144,1.25982 L8.6526,1.25982 C9.14941267,1.60762686 9.59776307,2.01996153 9.98586,2.48598 C11.1555,3.88494 11.78838,5.70186 11.8926,7.55424 L8.64144,7.55424 L8.64144,1.25964 L8.64144,1.25982 Z M5.38452,1.78848 C4.03308,3.40452 3.30426,5.46264 3.19644,7.55424 L1.25586,7.55424 C1.37952,5.98374 2.0376,4.44924 3.24126,3.2454 C3.85678051,2.62818551 4.58414003,2.13374964 5.38452,1.78848 L5.38452,1.78848 Z M10.82394,1.79964 C11.6177586,2.14516399 12.3391345,2.63758304 12.9501,3.25098 C14.1534,4.45428 14.81652,5.98518 14.94144,7.55406 L13.00086,7.55406 C12.89322,5.46786 12.16872,3.41406 10.82394,1.79964 L10.82394,1.79964 Z M1.25586,8.63424 L3.19626,8.63424 C3.30246,10.72908 4.0311,12.78684 5.38452,14.4054 C4.58657287,14.0612868 3.8612255,13.5687836 3.24702,12.95406 C2.04102,11.74806 1.37934,10.20762 1.25586,8.63406 L1.25586,8.63424 Z M4.30452,8.63424 L7.56144,8.63424 L7.56144,14.9454 L7.5501,14.9454 C7.07418,14.61456 6.62382,14.2011 6.21144,13.7079 C5.03928,12.30624 4.40694,10.49022 4.30452,8.63406 L4.30452,8.63424 Z M8.64144,8.63424 L11.8926,8.63424 C11.79036,10.49004 11.15784,12.30624 9.98586,13.7079 C9.57222,14.20236 9.1188,14.61402 8.64126,14.9454 L8.64126,8.63406 L8.64144,8.63424 Z M13.00086,8.63424 L14.94702,8.63424 C14.8248,10.20762 14.15682,11.74734 12.9501,12.95424 C12.3349254,13.5716142 11.6076266,14.0659696 10.8072,14.4108 C10.809,14.40882 10.81116,14.4072 10.81278,14.40522 C12.16638,12.78666 12.89502,10.7289 13.00104,8.63388 L13.00086,8.63424 Z"></path>
            </g>
        </g>
    </g>
</svg>