<svg width="32" height="36" viewBox="0 0 32 36" fill="none" xmlns="http://www.w3.org/2000/svg">
<path d="M16.619 35.13V25.005a.61.61 0 0 0-.619-.618.61.61 0 0 0-.618.618v10.164c0 .348.27.618.618.618s.619-.309.619-.657z" fill="#2EC7F2"></path><path d="M13.99 30.84L1.855 26.436c-1.662-.618-1.7-3.053 0-3.942l12.135-4.406c1.97-.618 1.97-.618 3.942 0l12.135 4.406c1.894.966 1.585 3.324 0 3.942L17.932 30.84c-1.971.58-1.971.58-3.942 0z" fill="#fff"></path><path d="M13.99 30.84l.232-.58-12.135-4.405-.232.58.232-.58c-.31-.116-.502-.27-.618-.502a1.393 1.393 0 0 1-.232-.773c0-.27.077-.58.232-.85.154-.271.386-.464.695-.657l-.27-.58.232.58 12.135-4.406-.232-.58.193.618c.503-.154.85-.27 1.121-.347.27-.078.464-.116.657-.116s.348.038.657.116c.27.077.657.193 1.12.347l.194-.618-.232.58 12.135 4.405.232-.58-.27.58c.348.194.58.426.734.658.155.231.232.502.232.773 0 .27-.077.58-.232.811a1.51 1.51 0 0 1-.657.541l.232.58-.232-.58-12.212 4.367.231.58-.193-.58c-.502.155-.85.27-1.12.31-.271.077-.464.077-.658.077-.193 0-.386-.039-.657-.078-.27-.077-.657-.193-1.12-.309l-.194.619.232-.58-.232.58-.193.618c.502.155.85.27 1.198.348.348.077.619.116.966.116.31 0 .619-.039.966-.116.348-.077.696-.193 1.199-.348h.038l12.097-4.406c.54-.193.966-.58 1.275-1.005.31-.463.464-.966.464-1.507 0-.502-.116-1.005-.425-1.43-.27-.464-.696-.85-1.237-1.12l-.077-.04-12.135-4.444h-.039c-.503-.154-.85-.27-1.198-.348a2.597 2.597 0 0 0-.928-.154c-.309 0-.618.039-.966.155-.348.077-.695.193-1.198.347h-.039L1.662 21.913l-.077.039c-.542.27-.928.657-1.199 1.12-.27.464-.386.967-.386 1.47 0 .502.155 1.004.425 1.468.27.425.696.811 1.275 1.005l12.136 4.405h.038l.116-.58z" fill="#2EC7F2"></path><path d="M31.227 19.865c-.27.27-.58.463-.928.618l-1.97.734 1.97.735.078.038c.116.078.27.155.386.232.541-.618.773-1.546.464-2.357zm-30.493.038c-.309.773-.116 1.7.464 2.28.116-.077.232-.154.386-.231l.078-.039 1.97-.734-1.97-.696c-.387-.155-.696-.348-.928-.58zM26.396 21.874l-8.27 2.976h-.039c-.502.155-.85.27-1.198.348a4.059 4.059 0 0 1-.928.116c-.309 0-.618-.039-.927-.116-.348-.077-.696-.193-1.198-.348l.193-.618-.193.618h-.039l-8.27-3.014-2.783 1.005 11.285 4.096c.966.31 1.469.425 1.971.425.503 0 .966-.154 1.971-.425l11.285-4.097-2.86-.966z" fill="#BAEDFA"></path><path d="M28.29 21.179l-1.855.695 2.783 1.005.85-.309c.27-.116.464-.232.657-.425a3.395 3.395 0 0 0-.387-.232l-.077-.039-1.971-.695zm-24.657 0l-1.971.734-.077.039c-.116.077-.27.154-.387.231.193.155.387.31.657.426l.85.309 2.783-1.005-1.855-.734z" fill="#21BAED"></path><path d="M13.99 24.27L1.855 19.866c-1.662-.618-1.7-3.053 0-3.942l12.135-4.406c1.97-.618 1.97-.618 3.942 0l12.135 4.406c1.894.966 1.585 3.324 0 3.942L17.932 24.27c-1.971.58-1.971.58-3.942 0z" fill="#fff"></path><path d="M13.99 24.27l.232-.58-12.135-4.405-.232.58.232-.58c-.31-.116-.502-.27-.618-.502a1.393 1.393 0 0 1-.232-.773c0-.27.077-.58.232-.85.154-.271.386-.464.695-.658l-.27-.58.232.58 12.135-4.405-.232-.58.193.618c.503-.154.85-.27 1.121-.348.27-.077.464-.116.657-.116s.348.04.657.117c.27.077.657.193 1.12.347l.194-.618-.232.58 12.135 4.405.232-.58-.27.58c.348.194.58.426.734.658.155.231.232.502.232.772s-.077.58-.232.812a1.51 1.51 0 0 1-.657.541l.232.58-.232-.58-12.212 4.367.231.58-.193-.58c-.502.155-.85.27-1.12.31-.271.077-.464.077-.658.077-.193 0-.386-.039-.657-.078-.27-.077-.657-.193-1.12-.309l-.194.619.232-.58-.232.58-.193.618c.502.155.85.27 1.198.348.348.077.619.116.966.116.31 0 .619-.039.966-.116.348-.077.696-.193 1.199-.348h.038l12.097-4.406c.54-.193.966-.58 1.275-1.005.31-.463.464-.966.464-1.507 0-.502-.116-1.005-.425-1.43-.27-.464-.696-.85-1.237-1.12l-.077-.04-12.135-4.444h-.039c-.503-.154-.85-.27-1.198-.348a2.6 2.6 0 0 0-.928-.154c-.309 0-.618.038-.966.154-.348.078-.695.194-1.198.348h-.039L1.662 15.343l-.077.039c-.542.27-.928.657-1.199 1.12-.27.464-.386.967-.386 1.469 0 .503.155 1.005.425 1.469.27.425.696.811 1.275 1.005l12.136 4.405h.038l.116-.58z" fill="#2EC7F2"></path><path d="M15.961 7.188c-.502 0-.966.155-1.97.464L1.854 12.058c-1.43.734-1.623 2.59-.657 3.517.116-.077.232-.155.386-.232l.078-.039L13.797 10.9h.039c.502-.155.85-.27 1.198-.348.348-.078.657-.155.966-.155.31 0 .618.039.966.155.348.077.696.193 1.198.348h.039l12.135 4.405.077.04c.116.076.27.154.387.23.966-.927.927-2.704-.657-3.516L17.932 7.691c-1.005-.31-1.468-.503-1.97-.503z" fill="#BAEDFA"></path><path d="M15.961 11.71c-.193 0-.348.039-.657.116-.27.077-.618.193-1.12.348L2.704 16.309l11.285 4.097c.966.309 1.469.425 1.971.425s.966-.155 1.971-.425l11.285-4.097L17.7 12.135c-.502-.154-.85-.27-1.12-.348-.271-.038-.464-.077-.619-.077z" fill="#BAEDFA"></path><path d="M15.961 10.435c-.309 0-.618.038-.966.154-.347.078-.695.194-1.198.348h-.038L1.662 15.343l-.077.039c-.116.077-.27.154-.387.232.193.154.387.309.657.425l.85.309 11.479-4.174c.502-.155.85-.27 1.12-.348.271-.077.464-.116.657-.116.194 0 .348.039.658.116.27.077.618.193 1.12.348l11.479 4.174.85-.31a1.93 1.93 0 0 0 .657-.424 3.395 3.395 0 0 0-.387-.232l-.077-.039-12.135-4.406h-.039c-.502-.154-.85-.27-1.198-.348a2.6 2.6 0 0 0-.928-.154z" fill="#21BAED"></path><path d="M13.99 17.7L1.855 13.296c-1.662-.619-1.7-3.053 0-3.942L13.99 4.947c1.97-.618 1.97-.618 3.942 0l12.135 4.406c1.894.966 1.585 3.323 0 3.942L17.932 17.7c-1.971.58-1.971.58-3.942 0z" fill="#fff"></path><path d="M13.99 17.7l.232-.58-12.135-4.405-.232.58.232-.58c-.31-.116-.502-.27-.618-.502a1.394 1.394 0 0 1-.232-.773c0-.27.077-.58.232-.85.154-.271.386-.464.695-.658l-.27-.58.232.58L14.26 5.527l-.232-.58.193.618c.503-.154.85-.27 1.121-.348.27-.077.464-.116.657-.116s.348.04.657.116c.27.078.657.194 1.12.348l.194-.618-.232.58 12.135 4.405.232-.58-.27.58c.348.194.58.425.734.657.155.232.232.503.232.773s-.077.58-.232.812a1.51 1.51 0 0 1-.657.541l.232.58-.232-.58-12.212 4.367.231.58-.193-.58c-.502.155-.85.27-1.12.31-.271.077-.464.077-.658.077-.193 0-.386-.039-.657-.078-.27-.077-.657-.193-1.12-.309l-.194.619.232-.58-.232.58-.193.618c.502.154.85.27 1.198.348.348.077.619.116.966.116.31 0 .619-.039.966-.116.348-.078.696-.194 1.199-.348h.038l12.097-4.406c.54-.193.966-.58 1.275-1.005.31-.463.464-.966.464-1.507 0-.502-.116-1.005-.425-1.43-.27-.464-.696-.85-1.237-1.12l-.077-.04-12.135-4.444h-.039c-.503-.154-.85-.27-1.198-.348a2.598 2.598 0 0 0-.928-.154c-.309 0-.618.038-.966.154-.348.078-.695.194-1.198.348h-.039L1.662 8.773l-.077.039c-.542.27-.928.657-1.199 1.12-.27.464-.386.967-.386 1.469 0 .502.155 1.005.425 1.469.27.425.696.811 1.275 1.004l12.136 4.406h.038l.116-.58z" fill="#2EC7F2"></path><path d="M16.619 11.324V.618A.61.61 0 0 0 16 0a.61.61 0 0 0-.618.618v10.667c0 .348.27.618.618.618.348.039.619-.232.619-.58z" fill="#2EC7F2"></path><path d="M18.589 11.324c0 .54-1.198 1.005-2.628 1.005-1.469 0-2.628-.464-2.628-1.005 0-.541 1.198-1.005 2.628-1.005 1.43 0 2.628.464 2.628 1.005z" fill="#2EC7F2"></path>
</svg>