<svg width="32" height="33" viewBox="0 0 32 33" fill="none" xmlns="http://www.w3.org/2000/svg"><g style="mix-blend-mode:multiply"><path d="M20.1484 29.6296C6.32978 23.8377 10.7857 1.71043 18.1917 1.71043C27.2594 1.18514 32.0367 11.7708 30.815 21.9258C30.815 14.9514 26.6265 32.3448 20.1484 29.6296Z" fill="#BBEDF9"></path></g><path d="M15.9999 32.0532C13.0567 32.0532 10.2206 31.2505 7.70561 29.7522L2.19396 31.6251C1.65885 31.7857 1.12374 31.6786 0.749157 31.3041C0.374578 30.9295 0.214045 30.3409 0.42809 29.8593L2.35449 24.3476C0.802668 21.8326 0 18.943 0 15.9999C0 7.1705 7.1705 0 15.9999 0C24.8292 0 31.9997 7.1705 31.9997 15.9999C32.0532 24.8827 24.8827 32.0532 15.9999 32.0532ZM7.86615 27.8793C8.02668 27.8793 8.18721 27.9328 8.34775 28.0399C10.6487 29.5382 13.3243 30.2873 16.0534 30.2873C23.9195 30.2873 30.2873 23.866 30.2873 15.9999C30.2873 8.1337 23.866 1.76587 16.0534 1.76587C8.18721 1.76587 1.76587 8.18721 1.76587 15.9999C1.76587 18.7289 2.56854 21.4045 4.01334 23.7055C4.17387 23.9195 4.17387 24.2406 4.12036 24.4546L2.30098 29.6987L7.54508 27.8793C7.6521 27.8793 7.75912 27.8793 7.86615 27.8793Z" fill="#36C5F0"></path>
</svg>