<svg width="32" height="36" viewBox="0 0 32 36" fill="none" xmlns="http://www.w3.org/2000/svg">
<path d="M7.115 1.205l.467.467c.116-.117.272-.194.466-.272.195-.078.428-.117.661-.117.661 0 1.517.233 2.41.7.934.467 1.906 1.166 2.8 2.1a12.245 12.245 0 0 1 2.1 2.8c.467.932.7 1.788.7 2.41 0 .272-.039.505-.117.66-.078.195-.155.35-.272.467-.117.117-.272.195-.466.273a1.815 1.815 0 0 1-.662.116c-.66 0-1.516-.233-2.41-.7-.933-.466-1.905-1.166-2.8-2.1a12.247 12.247 0 0 1-2.1-2.799c-.466-.933-.7-1.788-.7-2.41 0-.273.04-.506.117-.661.078-.195.156-.35.273-.467l-.467-.467-.428-.427a2.364 2.364 0 0 0-.583.933c-.117.35-.194.739-.194 1.089 0 .933.31 1.944.855 2.993.544 1.05 1.322 2.1 2.333 3.111.972.972 2.06 1.789 3.11 2.333 1.05.544 2.061.855 2.995.855.388 0 .738-.039 1.088-.194.35-.117.661-.311.933-.583.273-.272.467-.583.584-.933.116-.35.194-.74.194-1.09 0-.932-.311-1.943-.855-2.993-.545-1.05-1.322-2.1-2.333-3.11-.972-.973-2.061-1.79-3.11-2.334C10.691.311 9.641 0 8.708 0 8.32 0 7.97.039 7.62.194c-.35.117-.66.311-.933.584l.428.427z" fill="#2EC7F2"></path><path d="M11.82 10.887l.466-.467c-.117-.116-.194-.272-.272-.466a1.818 1.818 0 0 1-.117-.661c0-.661.234-1.517.7-2.41.467-.934 1.167-1.906 2.1-2.8a12.247 12.247 0 0 1 2.8-2.1c.933-.467 1.788-.7 2.41-.7.272 0 .506.039.661.117.194.078.35.155.467.272.116.117.194.272.272.467.078.194.117.427.117.66 0 .662-.234 1.517-.7 2.411-.467.933-1.167 1.905-2.1 2.8a12.25 12.25 0 0 1-2.8 2.1c-.894.466-1.788.7-2.41.7-.272 0-.506-.04-.661-.117-.195-.078-.35-.156-.467-.273l-.466.467-.467.467c.272.272.583.466.933.583.35.117.739.194 1.089.194.933 0 1.944-.31 2.994-.855 1.05-.544 2.1-1.322 3.11-2.333.972-.972 1.789-2.06 2.333-3.11.545-1.05.856-2.061.856-2.995 0-.388-.04-.738-.195-1.088a2.363 2.363 0 0 0-.583-.933 2.365 2.365 0 0 0-.933-.584C20.646.04 20.296 0 19.907 0c-.933 0-1.983.311-2.994.855-1.05.545-2.1 1.322-3.11 2.333-.973.972-1.789 2.061-2.333 3.11-.545 1.05-.856 2.062-.856 2.995 0 .389.04.739.195 1.089.116.35.31.66.583.933l.428-.428z" fill="#2EC7F2"></path><path d="M14.658 9.837h-.7a2.788 2.788 0 0 1-2.8-2.8v-.7c0-1.554 1.245-2.799 2.8-2.799h.7c1.555 0 2.8 1.245 2.8 2.8v.7c0 1.555-1.284 2.8-2.8 2.8z" fill="#fff"></path><path d="M14.658 9.837v-.622h-.7a2.147 2.147 0 0 1-1.516-.622 2.147 2.147 0 0 1-.622-1.516v-.7c0-.583.233-1.128.622-1.517a2.147 2.147 0 0 1 1.516-.622h.7c.583 0 1.128.234 1.516.622.39.39.623.934.623 1.517v.7c0 .583-.234 1.127-.623 1.516a2.146 2.146 0 0 1-1.516.622v1.244a3.427 3.427 0 0 0 3.422-3.421v-.7a3.427 3.427 0 0 0-3.422-3.422h-.7a3.427 3.427 0 0 0-3.421 3.422v.7a3.427 3.427 0 0 0 3.421 3.421h.7v-.622z" fill="#2EC7F2"></path><path d="M27.723 6.688H.623V29.55h27.1V6.688z" fill="#fff"></path><path d="M27.762 29.55v-.622H1.283V7.31H27.14v22.24h.622v-.622.622h.622V6.688a.718.718 0 0 0-.194-.467.644.644 0 0 0-.467-.194H.623a.717.717 0 0 0-.467.194.953.953 0 0 0-.156.467V29.55c0 .156.078.35.194.467a.644.644 0 0 0 .467.194h27.1c.156 0 .35-.077.467-.194.117-.117.156-.311.156-.467h-.622z" fill="#2EC7F2"></path><path d="M13.648 6.688V29.55c0 .35.272.622.622.622s.622-.272.622-.622V6.688a.614.614 0 0 0-.622-.622c-.311-.04-.622.272-.622.622z" fill="#2EC7F2"></path><path d="M27.762 17.03H.622a.532.532 0 0 0-.544.545c0 .31.233.544.544.544h27.1a.532.532 0 0 0 .545-.544c0-.311-.194-.545-.505-.545zM23.99 24.03v9.525c0 .428.506.661.817.35l1.555-1.516c.233-.233.661-.156.778.155l1.05 2.683c.116.272.427.389.66.234l1.517-.74c.233-.116.35-.427.194-.66l-1.4-2.683c-.194-.272 0-.661.35-.7l2.061-.272c.428-.04.584-.583.233-.856l-6.998-5.87c-.311-.273-.817-.04-.817.35zM20.49 12.17c-1.516 0-2.877-.622-3.887-1.594a5.527 5.527 0 0 1-1.595-3.888.614.614 0 0 0-.622-.622.614.614 0 0 0-.622.622 6.77 6.77 0 0 0 6.766 6.765c.35 0 .622-.272.622-.622a.655.655 0 0 0-.661-.66z" fill="#2EC7F2"></path><path d="M13.57 6.688c0 1.516-.622 2.877-1.594 3.888a5.527 5.527 0 0 1-3.889 1.594.614.614 0 0 0-.622.622c0 .35.273.622.622.622a6.77 6.77 0 0 0 6.766-6.765.614.614 0 0 0-.622-.622.655.655 0 0 0-.661.66z" fill="#2EC7F2"></path><path d="M27.1 7.31H15.048a5.501 5.501 0 0 0 1.556 3.227 5.377 5.377 0 0 0 3.655 1.594c3.227-.739 5.715-1.983 6.804-3.538V7.31h.039z" fill="#BAEDFA"></path><path d="M27.762 6.765H15.047c0 .195 0 .39.04.584H27.14v1.283c.389-.622.622-1.244.622-1.867z" fill="#21BAED"></path><path d="M13.648 10.498a7.21 7.21 0 0 1-2.411 2.178c.777.078 1.594.116 2.41.155v-2.333zm1.283.04v2.254a45.423 45.423 0 0 0 2.371-.155 7.232 7.232 0 0 1-2.371-2.1z" fill="#BAEDFA"></path><path d="M14.309 9.332c-.156.389-.39.777-.622 1.166v2.294h1.283v-2.255c-.273-.389-.506-.778-.661-1.205z" fill="#21BAED"></path><path d="M15.047 6.765h-.194c0 .934-.194 1.789-.544 2.605.194.428.388.817.66 1.167a6.493 6.493 0 0 0 2.372 2.1c1.05-.117 2.061-.273 2.994-.467a5.377 5.377 0 0 1-3.655-1.594 5.501 5.501 0 0 1-1.555-3.227c-.078-.195-.078-.39-.078-.584z" fill="#21BAED"></path><path d="M13.531 7.31H1.283v1.283C2.411 10.148 4.9 11.43 8.126 12.17c1.517 0 2.839-.622 3.85-1.594A5.732 5.732 0 0 0 13.53 7.31z" fill="#BAEDFA"></path><path d="M13.57 6.765H.622c0 .623.233 1.245.622 1.828V7.31h12.248a2.3 2.3 0 0 0 .078-.545z" fill="#21BAED"></path><path d="M14.853 6.765H13.57c0 .195 0 .39-.039.584a5.501 5.501 0 0 1-1.555 3.227 5.435 5.435 0 0 1-3.85 1.594c.973.233 2.022.389 3.15.505a6.476 6.476 0 0 0 2.41-2.177c.234-.35.467-.739.623-1.166a7.95 7.95 0 0 0 .544-2.567z" fill="#21BAED"></path>
</svg>